<svg id="Layer_1" data-name="Layer 1" xmlns="http://www.w3.org/2000/svg" viewBox="0 0 191.64 50.5"><defs><style>.cls-1{fill:#00a4c4;}</style></defs><rect class="cls-1" x="107.74" y="0.28" width="0.59" height="50.22"/><path class="cls-1" d="M26.37,33.3,37.58,50.5H26L18.79,39.66,11.53,50.5H0L11.39,33.3,0,16.21H8.9a5.44,5.44,0,0,1,4,2.15L18.8,27l5.84-8.67a5.46,5.46,0,0,1,4.05-2.15h8.89Z"/><path class="cls-1" d="M73.71,14.4c-6.37,0-11.41,1.06-15,2.65V50.5H69.06v-27a12.26,12.26,0,0,1,4.39-.73c4.17,0,5.3,2.46,5.3,5V50.5H89.1V25.74c0-6.5-4-11.34-15.39-11.34"/><path class="cls-1" d="M47.52.47h-.24A13.88,13.88,0,0,0,42,1.39V50.5H52.66V4.44c0-2.52-1.65-3.86-5.14-4"/><path class="cls-1" d="M188.28,40.92c-1.88,0-3.28,1-3.28,2.51,0,1.28.78,2.12,2.75,2.64,1.76.47,2.21.82,2.21,1.72s-.76,1.38-2,1.38a4.13,4.13,0,0,1-2.56-.88l-.85,1A5,5,0,0,0,188,50.45c1.85,0,3.6-.86,3.6-2.77,0-1.59-1.11-2.35-3-2.84-1.47-.38-2-.72-2-1.47s.64-1.19,1.68-1.19a4.24,4.24,0,0,1,2.37.78l.67-1a4.86,4.86,0,0,0-3.1-1m-8.09,0c-1.88,0-3.28,1-3.28,2.51,0,1.28.77,2.12,2.75,2.64,1.76.47,2.21.82,2.21,1.72s-.76,1.38-2,1.38a4.13,4.13,0,0,1-2.56-.88l-.85,1A5,5,0,0,0,180,50.45c1.85,0,3.6-.86,3.6-2.77,0-1.59-1.11-2.35-3-2.84-1.47-.38-2-.72-2-1.47s.64-1.19,1.68-1.19a4.24,4.24,0,0,1,2.37.78l.67-1a4.88,4.88,0,0,0-3.1-1m-6.42,4.13h-4.28c.13-2,.92-2.87,2.13-2.87,1.44,0,2.15,1,2.15,2.77Zm1.57.37c0-2.79-1.29-4.5-3.75-4.5s-3.79,2-3.79,4.86,1.49,4.67,4,4.67A5,5,0,0,0,175,49.31l-.69-1a3.84,3.84,0,0,1-2.37.79c-1.31,0-2.3-.81-2.46-2.92h5.82c0-.21,0-.5,0-.81m-12.24-4.5a3.3,3.3,0,0,0-2.78,1.55l-.14-1.35h-1.37v9.12h1.6V43.77a2.74,2.74,0,0,1,2.31-1.61c.89,0,1.44.4,1.44,1.77v6.31h1.59V43.7a2.49,2.49,0,0,0-2.65-2.78m-6.89.2h-1.59v9.12h1.59Zm-.81-4.37a1.08,1.08,0,1,0,1.12,1.09,1.06,1.06,0,0,0-1.12-1.09m-5.93,4.17c-1.89,0-3.29,1-3.29,2.51,0,1.28.78,2.12,2.75,2.64,1.77.47,2.21.82,2.21,1.72s-.76,1.38-1.95,1.38a4.15,4.15,0,0,1-2.56-.88l-.85,1a5.06,5.06,0,0,0,3.44,1.19c1.86,0,3.6-.86,3.6-2.77,0-1.59-1.1-2.35-3-2.84-1.48-.38-2-.72-2-1.47s.64-1.19,1.68-1.19a4.19,4.19,0,0,1,2.37.78l.67-1a4.85,4.85,0,0,0-3.09-1m-5.36.2h-1.59v6.51a2.73,2.73,0,0,1-2.28,1.57c-1,0-1.4-.46-1.4-1.71V41.12h-1.6v6.54c0,1.79,1,2.79,2.55,2.79a3.06,3.06,0,0,0,2.83-1.63l.13,1.42h1.36ZM131.2,49.19a2.43,2.43,0,0,1-2-1.23V43.6a2.56,2.56,0,0,1,2.13-1.42c1.28,0,2.12.9,2.12,3.49s-.91,3.52-2.25,3.52m.58-8.27a3.07,3.07,0,0,0-2.58,1.35v-5l-1.59.19V50.24H129l.15-1a3.05,3.05,0,0,0,2.43,1.21c2.21,0,3.58-1.92,3.58-4.78,0-3-1.34-4.75-3.39-4.75"/><path class="cls-1" d="M164.82,31.82a2.64,2.64,0,0,0,1.26-.31l-.41-1.11a1.59,1.59,0,0,1-.59.1c-.42,0-.57-.24-.57-.72V18.63l-1.59.19v11a1.79,1.79,0,0,0,1.9,2m-4.6,0a2.71,2.71,0,0,0,1.27-.31l-.42-1.11a1.52,1.52,0,0,1-.59.1c-.41,0-.57-.24-.57-.72V18.63l-1.59.19v11a1.79,1.79,0,0,0,1.9,2M152,30.62A1.44,1.44,0,0,1,150.43,29c0-1.25.85-1.87,2.53-1.87h1.19V29.2A2.33,2.33,0,0,1,152,30.62m3.74-1.14V25.31c0-1.9-1-3-3.2-3a8.87,8.87,0,0,0-3.15.63l.4,1.16a7.9,7.9,0,0,1,2.46-.49c1.26,0,1.9.49,1.9,1.8v.68h-1.4c-2.55,0-4,1.05-4,3a2.65,2.65,0,0,0,2.91,2.75,3.12,3.12,0,0,0,2.72-1.37,1.84,1.84,0,0,0,1.78,1.37l.36-1.11c-.46-.17-.76-.43-.76-1.23m-11.28-7.2a3.16,3.16,0,0,0-2.71,1.65,2.31,2.31,0,0,0-2.3-1.65,3,3,0,0,0-2.63,1.54l-.14-1.33h-1.37v9.12h1.59V25.14c.61-1,1.16-1.61,2.15-1.61.69,0,1.28.4,1.28,1.76v6.32h1.59V25.14c.62-1,1.16-1.61,2.15-1.61.69,0,1.28.4,1.28,1.76v6.32h1.59V25.07a2.48,2.48,0,0,0-2.48-2.79m-14.33,0c-1.88,0-3.29,1.06-3.29,2.51,0,1.28.78,2.13,2.76,2.65,1.76.47,2.21.81,2.21,1.71s-.76,1.39-2,1.39a4.12,4.12,0,0,1-2.56-.89l-.84,1a5,5,0,0,0,3.44,1.2c1.85,0,3.6-.87,3.6-2.77,0-1.59-1.11-2.35-3-2.84-1.47-.38-2-.73-2-1.47s.65-1.19,1.68-1.19a4.19,4.19,0,0,1,2.37.78l.68-1a4.85,4.85,0,0,0-3.1-1"/><path class="cls-1" d="M146.6,3.65a2.6,2.6,0,0,0-2.44,2.06L144,3.86h-1.37V13h1.59V7.77c.38-1.75,1-2.56,2.18-2.56a2.87,2.87,0,0,1,.8.1l.29-1.56a4.43,4.43,0,0,0-.9-.1M136.47,4.93c1.5,0,2.33,1.11,2.33,3.48s-.83,3.49-2.35,3.49-2.35-1.1-2.35-3.47.84-3.5,2.37-3.5m0-1.28c-2.6,0-4.09,2-4.09,4.78s1.47,4.76,4.07,4.76,4.07-2,4.07-4.78-1.46-4.76-4.05-4.76m-5.72-2.37a3.93,3.93,0,0,1,1.6.35l.5-1.16A4.93,4.93,0,0,0,130.67,0a2.55,2.55,0,0,0-2.86,2.61V3.86h-1.62V5.09h1.62V13h1.59V5.09h2l.17-1.23H129.4V2.6c0-.89.35-1.32,1.35-1.32"/></svg>